<!-- icon666.com - MILLIONS vector ICONS FREE --><svg id="Capa_1" enable-background="new 0 0 512 512" viewBox="0 0 512 512" xmlns="http://www.w3.org/2000/svg"><g><g><g><g><g><g><g><g><g><g><circle cx="256" cy="256" fill="#ffdc4a" r="256"></circle></g></g></g></g></g></g></g></g></g><path d="m512 256c0-1.231-.009-2.461-.026-3.688l-53.595-53.782-26.049-25.863-378.149 66.7 56.417 56.417-28.502 65.224 149.879 149.879c7.908.736 15.923 1.113 24.025 1.113 141.385 0 256-114.615 256-256z" fill="#fdba12"></path><g><path d="m411.909 218.684h-311.818c-14.574 0-26.389-11.815-26.389-26.389v-2.914c0-14.574 11.815-26.389 26.389-26.389h311.818c14.574 0 26.389 11.815 26.389 26.389v2.914c0 14.574-11.815 26.389-26.389 26.389z" fill="#fff"></path></g><g><path d="m411.909 162.991h-155.8v55.692h155.8c14.574 0 26.389-11.814 26.389-26.389v-2.914c0-14.574-11.815-26.389-26.389-26.389z" fill="#e9edf5"></path></g><g><path d="m102.077 282.627h307.845v28.877h-307.845z" fill="#c38778"></path></g><g><path d="m256.108 282.627h153.814v28.877h-153.814z" fill="#a65d4e"></path></g><g><g><path d="m398.715 223.84h31.19v137.168h-31.19z" fill="#784132"></path></g><g><path d="m82.095 223.84h31.19v137.168h-31.19z" fill="#a65d4e"></path></g></g><g><path d="m439.755 246.53h-367.51c-14.574 0-26.389-11.815-26.389-26.389v-2.914c0-14.574 11.815-26.389 26.389-26.389h367.51c14.574 0 26.389 11.815 26.389 26.389v2.914c0 14.574-11.815 26.389-26.389 26.389z" fill="#c38778"></path></g><g><path d="m439.755 190.838h-183.647v55.692h183.646c14.574 0 26.389-11.814 26.389-26.389v-2.914c.001-14.575-11.814-26.389-26.388-26.389z" fill="#a65d4e"></path></g></g></svg>