<!-- icon666.com - MILLIONS vector ICONS FREE --><svg version="1.1" id="Capa_1" xmlns="http://www.w3.org/2000/svg" xmlns:xlink="http://www.w3.org/1999/xlink" x="0px" y="0px" viewBox="0 0 512 512" style="enable-background:new 0 0 512 512;" xml:space="preserve"><path style="fill:#FFB4A9;" d="M142.5,29.999v101l45-46v-10C187.5,50.146,167.353,29.999,142.5,29.999z"></path><path style="fill:#FFD9D4;" d="M142.5,29.999c-24.853,0-45,20.147-45,45v10l60,46v-56C157.5,50.146,150.784,29.999,142.5,29.999z"></path><path style="fill:#A45E43;" d="M161.209,84.999c-1.053-1.573-2.303-3.002-3.709-4.261l-15,69.261c24.853,0,45-20.147,45-45v-20 C187.5,84.999,161.209,84.999,161.209,84.999z"></path><path style="fill:#C27749;" d="M157.5,104.999V80.738c-3.981-3.566-9.235-5.739-15-5.739c-7.801,0-14.672,3.971-18.709,10H97.5v20 c0,24.853,20.147,45,45,45C150.784,149.999,157.5,129.852,157.5,104.999z"></path><path style="fill:#2DADE3;" d="M142.5,239.999v75c24.853,0,45-20.147,45-45L142.5,239.999z"></path><g><path style="fill:#49C9FF;" d="M157.5,269.999l-15-30l-45,30c0,24.853,20.147,45,45,45 C150.784,314.999,157.5,294.852,157.5,269.999z"></path><path style="fill:#49C9FF;" d="M167.5,149.999h-30l20,120h30v-100C187.5,158.953,178.546,149.999,167.5,149.999z"></path></g><path style="fill:#7DD9FF;" d="M137.5,149.999h-20c-11.046,0-20,8.954-20,20v100h60v-100 C157.5,158.953,148.546,149.999,137.5,149.999z"></path><polygon style="fill:#696969;" points="397.5,346.999 362.5,361.999 397.5,376.999 427.5,376.999 427.5,346.999 "></polygon><rect x="292.5" y="347" style="fill:#808080;" width="105" height="30"></rect><path style="fill:#CCCCCC;" d="M292.5,321.999v160c44.183,0,80-35.817,80-80S336.683,321.999,292.5,321.999z"></path><path style="fill:#FFFFFF;" d="M342.5,401.999c0-44.183-22.386-80-50-80c-44.183,0-80,35.817-80,80s35.817,80,80,80 C320.114,481.999,342.5,446.182,342.5,401.999z"></path><path style="fill:#CCCCCC;" d="M427.5,421.999l-15,30l15,30c16.569,0,30-13.431,30-30S444.069,421.999,427.5,421.999z"></path><path style="fill:#FFFFFF;" d="M397.5,451.999c0,16.569,13.431,30,30,30v-60C410.931,421.999,397.5,435.43,397.5,451.999z"></path><circle cx="292.5" cy="402" r="7.5"></circle><path d="M292.5,344.499c-31.706,0-57.5,25.794-57.5,57.5s25.794,57.5,57.5,57.5s57.5-25.794,57.5-57.5 S324.206,344.499,292.5,344.499z M292.5,444.499c-23.435,0-42.5-19.065-42.5-42.5s19.065-42.5,42.5-42.5s42.5,19.065,42.5,42.5 S315.935,444.499,292.5,444.499z"></path><path d="M504.5,444.499h-40.255c-2.99-14.672-14.573-26.255-29.245-29.245v-98.255c0-20.678-16.822-37.5-37.5-37.5H300v-44.5 c0-20.678-16.822-37.5-37.5-37.5H195v-27.5c0-11.727-7.381-21.757-17.739-25.704C188.13,134.669,195,120.625,195,104.999v-30 c0-28.949-23.551-52.5-52.5-52.5S90,46.05,90,74.999v30c0,15.626,6.87,29.67,17.739,39.296c-7.974,3.039-14.179,9.684-16.614,17.933 C48.605,158.96,15,123.343,15,79.999c0-4.142-3.358-7.5-7.5-7.5S0,75.857,0,79.999c0,51.239,39.729,93.372,90,97.214v92.786 c0,14.269,5.73,27.22,15,36.692v159.902l-24.872,8.291c-3.93,1.31-6.053,5.557-4.744,9.487c1.048,3.143,3.974,5.13,7.114,5.13 c0.786,0,1.586-0.125,2.373-0.387l30-10c3.062-1.021,5.128-3.887,5.128-7.115V317.423c6.824,3.25,14.452,5.076,22.5,5.076 s15.676-1.825,22.5-5.076v154.576c0,3.228,2.066,6.094,5.128,7.115l30,10c0.787,0.262,1.586,0.387,2.373,0.387 c3.14,0,6.066-1.988,7.114-5.13c1.31-3.93-0.814-8.177-4.744-9.487L180,466.593V306.691c9.27-9.472,15-22.423,15-36.692v-57.5h67.5 c12.407,0,22.5,10.093,22.5,22.5v79.825c-44.749,3.817-80,41.454-80,87.175c0,48.248,39.252,87.5,87.5,87.5s87.5-39.252,87.5-87.5 c0-5.991-0.607-11.844-1.759-17.5H420v30.755c-17.096,3.484-30,18.635-30,36.745c0,20.678,16.822,37.5,37.5,37.5 c18.11,0,33.261-12.904,36.745-30H504.5c4.142,0,7.5-3.358,7.5-7.5S508.642,444.499,504.5,444.499z M142.5,37.499 c20.678,0,37.5,16.822,37.5,37.5v2.5h-15.139c-5.652-6.325-13.746-10-22.361-10s-16.708,3.675-22.361,10H105v-2.5 C105,54.321,121.822,37.499,142.5,37.499z M105,104.999v-12.5h18.792c2.502,0,4.84-1.248,6.232-3.328 c2.797-4.178,7.461-6.672,12.476-6.672s9.679,2.494,12.476,6.672c1.392,2.08,3.73,3.328,6.232,3.328H180v12.5 c0,20.678-16.822,37.5-37.5,37.5S105,125.677,105,104.999z M117.5,157.499H135v22.5c0,4.142,3.358,7.5,7.5,7.5s7.5-3.358,7.5-7.5 v-22.5h17.5c6.893,0,12.5,5.607,12.5,12.5v92.5h-75v-92.5C105,163.106,110.607,157.499,117.5,157.499z M105.755,277.499h73.491 c-3.484,17.096-18.635,30-36.745,30S109.239,294.595,105.755,277.499z M397.5,294.499c12.407,0,22.5,10.093,22.5,22.5v22.5h-66.33 c-14.111-13.813-32.862-22.9-53.67-24.675v-20.325H397.5z M292.5,474.499c-39.977,0-72.5-32.523-72.5-72.5s32.523-72.5,72.5-72.5 s72.5,32.523,72.5,72.5S332.477,474.499,292.5,474.499z M373.738,369.499c-2.117-5.272-4.732-10.291-7.787-15H420v15H373.738z M427.5,474.499c-12.407,0-22.5-10.093-22.5-22.5s10.093-22.5,22.5-22.5s22.5,10.093,22.5,22.5S439.907,474.499,427.5,474.499z"></path><circle cx="427.5" cy="452" r="7.5"></circle></svg>