<!-- icon666.com - MILLIONS vector ICONS FREE --><svg enable-background="new 0 0 64 64" viewBox="0 0 64 64" xmlns="http://www.w3.org/2000/svg"><g id="Icons"><g><g><g><path d="m37.444 12c-.349.599-.845 1.094-1.444 1.444v2.556h6.841c-.538-1.226-.841-2.578-.841-4z" fill="#64c8f0"></path></g></g><g><g><path d="m46 22v2 8.343c0 1.061-.421 2.078-1.172 2.828l-4.828 4.829-4.828-4.828c-.287-.287-.509-.622-.694-.974-.248.341-.516.67-.82.974l-2.226 2.226c.105.123.211.245.326.36l6.242 6.242v12h4v-12l6.243-6.243c1.125-1.125 1.757-2.651 1.757-4.242v-11.717c-1.48-.302-2.835-.94-4-1.817z" fill="#fab400"></path></g></g><g><g><path d="m39.444 12h-2c-.349.599-.845 1.094-1.444 1.444v2.556h2v-2.556c.599-.35 1.094-.845 1.444-1.444z" fill="#46aad2"></path></g></g><g><g><path d="m36 22h10v2h-10z" fill="#64c8f0"></path></g></g><g><g><path d="m36 22h2v2h-2z" fill="#46aad2"></path></g></g><g><g><path d="m44 60h-8v-2c0-1.105.895-2 2-2h4c1.105 0 2 .895 2 2z" fill="#64c8f0"></path></g></g><g><g><path d="m40 56h-2c-1.105 0-2 .895-2 2v2h2v-2c0-1.105.895-2 2-2z" fill="#46aad2"></path></g></g><g><g><path d="m33.757 37.757c-.461-.461-.835-.993-1.121-1.566l-1.206 1.206c.105.123.211.245.326.36l6.244 6.243v12h2v-12z" fill="#dc9600"></path></g></g><g><g><path d="m14 12v17.515c0 1.591.632 3.117 1.757 4.243l6.243 6.242v12h4v-12l6.243-6.243c1.125-1.125 1.757-2.651 1.757-4.242v-17.515h-4v16.343c0 1.061-.421 2.078-1.172 2.828l-4.828 4.829-4.828-4.828c-.751-.751-1.172-1.768-1.172-2.829v-16.343z" fill="#fab400"></path></g></g><g><g><path d="m17.757 33.757c-1.125-1.125-1.757-2.651-1.757-4.242v-17.515h-2v17.515c0 1.591.632 3.117 1.757 4.243l6.243 6.242v12h2v-12z" fill="#dc9600"></path></g></g><g><g><path d="m28 56h-8v-2c0-1.105.895-2 2-2h4c1.105 0 2 .895 2 2z" fill="#64c8f0"></path></g></g><g><g><path d="m24 52h-2c-1.105 0-2 .895-2 2v2h2v-2c0-1.105.895-2 2-2z" fill="#46aad2"></path></g></g><g><g><path d="m18 18h12v2h-12z" fill="#64c8f0"></path></g></g><g><g><path d="m34 12h-20c-1.105 0-2-.895-2-2 0-1.105.895-2 2-2h20c1.105 0 2 .895 2 2 0 1.105-.895 2-2 2z" fill="#64c8f0"></path></g></g><g><g><path d="m14 10c0-1.105.895-2 2-2h-2c-1.105 0-2 .895-2 2s.895 2 2 2h2c-1.105 0-2-.895-2-2z" fill="#46aad2"></path></g></g><g><g><circle cx="52" cy="12" fill="#fa6450" r="8"></circle></g></g><g><g><path d="m45.983 12c0-4.082 3.059-7.443 7.009-7.932-.326-.041-.656-.068-.992-.068-4.418 0-8 3.582-8 8s3.582 8 8 8c.336 0 .666-.027.991-.068-3.949-.489-7.008-3.85-7.008-7.932z" fill="#dc4632"></path></g></g><g><g><path d="m56 11h-3v-3h-2v3h-3v2h3v3h2v-3h3z" fill="#f0f0f0"></path></g></g></g></g></svg>