<!-- icon666.com - MILLIONS vector ICONS FREE --><svg version="1.1" id="Capa_1" xmlns="http://www.w3.org/2000/svg" xmlns:xlink="http://www.w3.org/1999/xlink" x="0px" y="0px" viewBox="0 0 511.996 511.996" style="enable-background:new 0 0 511.996 511.996;" xml:space="preserve"><circle style="fill:#EF4848;" cx="262.028" cy="255.996" r="249.968"></circle><path style="fill:#57646E;" d="M309.428,10.538c-15.348-2.946-31.188-4.507-47.395-4.507 c-138.054,0-249.968,111.914-249.968,249.968S123.98,505.967,262.033,505.967c16.207,0,32.047-1.561,47.395-4.507V10.538z"></path><path style="fill:#687882;" d="M12.066,255.999c0,38.362,8.653,74.701,24.096,107.186c45.079,44.138,106.784,71.362,174.858,71.362 c0.162,0,0.324,0,0.486,0c25.969-0.05,46.908-21.322,46.908-47.291V6.078C122.032,8.015,12.066,119.156,12.066,255.999z"></path><path style="fill:#F9B180;" d="M47.605,314.215c-9.271,1.816-17.326,4.088-20.072,8.06c0,0-27.533,51.322-27.533,56.022 c0,2.984,4.281,29.862,4.281,29.862c0.556,3.877,4.183,6.595,8.06,6.039l0,0c5.989-0.859,10.186-6.46,9.327-12.449l-3.099-21.611 l31.695-45.86C53.011,330.305,47.605,314.215,47.605,314.215z"></path><path style="fill:#F9C29D;" d="M253.03,6.21l-42.732,14.38l121.49,344.122l54.494-1.254c32.793-11.035,56.283-36.781,44.841-70.781 l-92.425-274.65c-24.16-7.778-49.918-11.995-76.665-11.995C259.018,6.032,256.02,6.104,253.03,6.21z"></path><path style="fill:#FCCBA9;" d="M310.431,10.729c-15.658-3.077-31.838-4.698-48.398-4.698c-3.016,0-6.014,0.072-9.004,0.179 l-42.732,14.38l117.322,332.314l29.075-0.669c32.793-11.035,56.283-36.781,44.841-70.781L310.431,10.729z"></path><path style="fill:#FCBF95;" d="M54.389,310.617c-9.246,1.943-23.772,11.089-26.463,15.098c0,0-20.615,47.398-20.265,49.626 l4.687,29.801c0.609,3.87,4.272,6.537,8.142,5.929l0,0c5.977-0.94,10.097-6.599,9.157-12.575l-3.392-21.568l31.067-46.288 C60.014,326.631,54.389,310.617,54.389,310.617z"></path><g><path style="fill:#FCCBA9;" d="M149.774,325.835l-43.35,24.733c-15.138,8.637-58.802,17.131-67.438,1.994l-11.644-20.41 c-2.631-4.612-1.011-10.537,3.601-13.169l68.572-46.527c4.612-2.631,28.666-3.949,31.297,0.661l22.563,39.548 C156.006,317.278,154.386,323.204,149.774,325.835z"></path><path style="fill:#FCCBA9;" d="M74.124,324.619l-0.406-0.356c-3.465-3.034-33.473-1.275-36.508,2.191 c0,0-14.806,44.078-14.746,46.229l0.802,28.772c0.104,3.736,3.245,6.707,6.982,6.603l0,0c5.77-0.161,10.359-5.014,10.198-10.783 l-0.581-20.823l35.041-40.014C77.942,332.972,77.59,327.655,74.124,324.619z"></path></g><path style="fill:#79CFE2;" d="M376.794,364.713H87.523c-7.404,0-13.463-6.058-13.463-13.463V245.961 c0-30.707,25.124-55.833,55.833-55.833h204.532c30.707,0,55.833,25.124,55.833,55.833V351.25 C390.257,358.655,384.198,364.713,376.794,364.713z"></path><path style="fill:#D3EEF4;" d="M321.603,200.623H142.714c-30.355,0-55.192,24.837-55.192,55.192v108.898h289.272V255.814 C376.794,225.459,351.958,200.623,321.603,200.623z"></path><path style="fill:#8AD5EC;" d="M319.347,212.424c0-7.554-0.482-14.995-1.414-22.295h-188.04c-30.707,0-55.833,25.124-55.833,55.833 V351.25c0,7.404,6.058,13.463,13.463,13.463h142.256C283.202,334.956,319.347,277.915,319.347,212.424z"></path><path style="fill:#E4F6F9;" d="M319.347,212.424c0-3.967-0.141-7.9-0.402-11.801H142.714c-30.355,0-55.192,24.837-55.192,55.192 v108.898h142.256C283.202,334.956,319.347,277.915,319.347,212.424z"></path><path style="fill:#538AC8;" d="M190.097,16.557L92.842,245.135c-5.602,13.168,0.587,28.524,13.754,34.126l0,0 c13.167,5.602,28.524-0.587,34.126-13.754L251.014,6.286C229.924,7.202,209.516,10.731,190.097,16.557z"></path><path style="fill:#5D95CE;" d="M190.097,16.557L92.842,245.135c-1.449,3.406-2.103,6.958-2.058,10.451 c1.69,1.296,3.565,2.401,5.609,3.27l0,0c13.167,5.602,28.524-0.587,34.126-13.754L231.444,7.897 C217.26,9.628,203.445,12.552,190.097,16.557z"></path><path style="fill:#57A1D3;" d="M181.913,19.149l-56.893,133.714c-2.198,5.166,0.231,11.191,5.396,13.389l42.814,18.216 c5.166,2.198,11.191-0.231,13.389-5.396L260.235,6.054C232.859,6.248,206.525,10.826,181.913,19.149z"></path><path style="fill:#66AFE2;" d="M181.913,19.149l-56.893,133.714c-2.198,5.166,0.231,11.191,5.396,13.389l27.665,11.771 c0.824-0.862,1.518-1.873,2.011-3.032L231.174,7.929C214.167,10.022,197.686,13.816,181.913,19.149z"></path></svg>