<!-- icon666.com - MILLIONS vector ICONS FREE --><svg id="icons" enable-background="new 0 0 64 64" viewBox="0 0 64 64" xmlns="http://www.w3.org/2000/svg"><path d="m42.515 1c.55 0 1 .45 1 1v2c0 .55-.45 1-1 1h-3.49c-.55 0-1.45 0-2 0h-8.539c-.55 0-1-.45-1-1v-2c0-.55.45-1 1-1z" fill="#545c66"></path><path d="m41.424 36h-20.93-3-7.999v-3h8.009 3 20.65c.09.99.18 2 .27 3z" fill="#ccd1d9"></path><path d="m52.774 40h-8c-.29-3.35-.58-6.78-.86-10h8 .011c.269 3.21.559 6.64.849 10z" fill="#ccd1d9"></path><path d="m53.484 14.3c.51 3.82 3.6 41.48 3.98 45.69v.01h-3.011v-.01c-.198-2.32-.908-10.89-1.679-19.99-.29-3.36-.58-6.79-.85-10-.65-7.54-1.221-13.89-1.41-15.3-.431-3.25-2.86-6.7-6.511-6.7h-4.449c-1.631-1.79-3.86-3-6.561-3h10.521.489c5.361 0 8.882 4.79 9.481 9.3z" fill="#aab2bd"></path><path d="m31.494 1c.55 0 1 .45 1 1v2c0 .55-.45 1-1 1h-3.49c-.55 0-1.45 0-2 0h-8.539c-.55 0-1-.45-1-1v-2c0-.55.45-1 1-1z" fill="#656d78"></path><path d="m20.494 59.99v.01h-3v-.01-23.99h3z" fill="#aab2bd"></path><path d="m27.004 8c-3.58 0-6.5 2.92-6.5 6.5v18.5h-3v-18.5c0-2.51.98-4.8 2.58-6.5z" fill="#aab2bd"></path><path d="m9.495 60c.55 0 1 .45 1 1v1c0 .55-.45 1-1 1h-3c-.55 0-1-.45-1-1v-1c0-.55.45-1 1-1z" fill="#656d78"></path><path d="m46.494 60c.55 0 1 .45 1 1v1c0 .55-.45 1-1 1h-3c-.55 0-1-.45-1-1v-1c0-.55.45-1 1-1z" fill="#656d78"></path><path d="m20.504 60c.55 0 1 .45 1 1v1c0 .55-.45 1-1 1h-3c-.55 0-1-.45-1-1v-1c0-.55.45-1 1-1z" fill="#545c66"></path><path d="m57.505 60c.55 0 1 .45 1 1v1c0 .55-.45 1-1 1h-3c-.55 0-1-.45-1-1v-1c0-.55.45-1 1-1z" fill="#545c66"></path><path d="m27.004 5h5.49.5c2.7 0 4.93 1.21 6.561 3 1.6 1.75 2.619 4.06 2.92 6.3.199 1.48.779 8 1.439 15.7.28 3.22.57 6.65.86 10 .78 9.36 1.511 18.09 1.681 19.99v.01h-3.011v-.01c-.229-2.65-1.13-13.53-2.021-23.99-.09-1-.18-2.01-.27-3-.74-8.81-1.439-16.71-1.65-18.3-.43-3.25-2.859-6.7-6.51-6.7h-5.99-6.92-4.09c-3.58 0-6.499 2.92-6.499 6.5v18.5 3 23.99.01h-3v-.01-45.49c0-5.24 4.259-9.5 9.499-9.5h.471z" fill="#e6e9ed"></path></svg>